<?xml version="1.0" encoding="UTF-8" standalone="no"?>
<!DOCTYPE svg PUBLIC "-//W3C//DTD SVG 1.1//EN" "http://www.w3.org/Graphics/SVG/1.1/DTD/svg11.dtd">
<svg width="100%" height="100%" viewBox="0 0 1080 688" version="1.1" xmlns="http://www.w3.org/2000/svg" xmlns:xlink="http://www.w3.org/1999/xlink" xml:space="preserve" xmlns:serif="http://www.serif.com/" style="fill-rule:evenodd;clip-rule:evenodd;stroke-linejoin:round;stroke-miterlimit:2;">
    <g id="Artboard1" transform="matrix(1,0,0,0.636944,0,0)">
        <rect x="0" y="0" width="1080" height="1080" style="fill:none;"/>
        <g transform="matrix(1,0,0,1,-1.5,58.3323)">
            <g transform="matrix(2.67753,0,0,4.20371,-176.586,-794.412)">
                <path d="M118.196,238.891L114.531,240.985L106.153,249.364C103.709,251.458 101.789,253.553 100.393,255.647C102.836,256.345 105.28,255.996 107.724,254.6L112.96,257.742C115.055,259.487 116.975,260.884 118.72,261.931L124.48,265.596L125.527,266.12L127.098,267.691C130.589,269.436 133.207,271.531 134.953,273.975L132.335,276.593C130.938,277.989 129.716,279.036 128.669,279.735C125.527,281.48 123.084,283.4 121.338,285.495C119.593,293.175 119.244,300.156 120.291,306.44C119.942,309.582 119.418,312.375 118.72,314.818L118.72,321.625L118.196,325.815C117.149,330.004 116.8,333.669 117.149,336.811L116.102,341.524C113.309,345.713 111.389,349.378 110.342,352.52C114.531,351.124 117.673,349.029 119.767,346.236C129.193,339.255 135.302,331.051 138.095,321.625L138.618,318.484L139.142,306.964C139.491,306.265 139.753,305.567 139.927,304.869C140.102,304.171 140.189,302.949 140.189,301.204C140.189,299.109 140.364,297.364 140.713,295.967L141.236,292.825L141.236,289.16L142.284,285.495C142.284,283.051 142.458,279.909 142.807,276.069C144.204,273.975 145.775,272.229 147.52,270.833L148.567,272.927L148.044,276.069L147.52,281.305L147.52,286.018C146.822,288.811 146.473,291.255 146.473,293.349L146.473,299.109C146.473,299.807 146.385,300.593 146.211,301.465C146.036,302.338 145.775,302.949 145.425,303.298L145.425,308.535L144.902,311.153L143.855,318.484L141.76,331.575L140.713,333.669L139.665,334.716C137.92,337.858 136.175,340.476 134.429,342.571L132.858,344.665L117.149,358.804C115.404,360.898 115.578,362.12 117.673,362.469L120.291,360.898L123.956,358.804C125.004,358.455 125.702,358.105 126.051,357.756C127.447,356.709 128.844,356.011 130.24,355.662C133.382,353.916 136.175,352.695 138.618,351.996C139.316,352.345 140.538,352.695 142.284,353.044C146.124,353.393 149.44,354.091 152.233,355.138L157.993,357.756L165.324,360.375C168.116,362.12 170.735,363.342 173.178,364.04C178.415,367.182 183.651,369.102 188.887,369.8C190.633,368.753 192.029,367.705 193.076,366.658C197.615,364.564 201.28,362.12 204.073,359.327C226.764,349.553 236.887,333.844 234.444,312.2C232.698,303.124 228.858,295.967 222.924,290.731L220.829,290.207C219.084,289.16 217.338,288.462 215.593,288.113L208.262,286.542L205.12,286.018C201.629,285.32 198.662,284.971 196.218,284.971C193.076,284.622 190.458,284.098 188.364,283.4C190.109,280.956 192.029,279.036 194.124,277.64L195.695,275.545L198.836,273.451L199.884,272.404L202.502,269.262L208.262,264.025C210.007,261.582 211.578,259.662 212.975,258.265L212.451,256.171C202.327,248.491 191.68,243.778 180.509,242.033C178.415,242.731 176.669,243.604 175.273,244.651C168.291,251.982 160.436,256.171 151.709,257.218L148.567,255.124L147.52,254.076L139.665,249.364L138.618,248.316C131.636,243.08 125.527,239.415 120.291,237.32L118.196,238.891ZM170.036,259.836C179.113,261.582 186.793,264.898 193.076,269.785L192.553,271.356L184.698,280.258L179.985,283.924C178.24,285.669 176.844,286.891 175.796,287.589C172.655,291.08 169.687,293.698 166.895,295.444L166.371,293.873L166.371,286.542L166.895,283.924L166.895,272.404C167.593,268.215 167.942,264.724 167.942,261.931C168.64,260.884 169.338,260.185 170.036,259.836ZM168.989,301.204C171.084,300.855 173.004,300.855 174.749,301.204L180.509,301.204C188.189,301.204 194.822,302.425 200.407,304.869C202.851,304.869 205.12,305.218 207.215,305.916C215.244,316.738 217.338,328.084 213.498,339.953C212.102,346.585 209.135,351.473 204.596,354.615L201.978,354.091L191.505,349.902L189.935,348.855L184.698,346.76C182.953,345.713 181.382,345.015 179.985,344.665L161.135,336.811C159.04,336.811 157.295,336.985 155.898,337.335C149.964,340.476 144.902,342.571 140.713,343.618C142.109,341.175 143.68,339.429 145.425,338.382L146.473,336.811L149.615,333.669L151.185,331.575C152.233,329.829 153.28,328.607 154.327,327.909L157.993,322.149C160.087,319.705 161.658,317.611 162.705,315.865L163.229,312.2L164.276,309.058C164.625,305.916 165.149,303.124 165.847,300.68L168.989,301.204Z" style="fill:rgb(26,26,26);fill-rule:nonzero;"/>
            </g>
            <g transform="matrix(2.67753,0,0,4.20371,-173.586,-911.076)">
                <path d="M254.604,304.345L253.033,304.869L247.273,308.535C244.131,309.582 241.338,311.153 238.895,313.247L238.371,315.342L238.371,324.244C238.371,325.291 238.545,325.989 238.895,326.338L238.371,327.909L238.895,330.527L238.895,335.24L238.371,336.811L238.371,339.953L238.895,342.047L238.371,344.665L239.418,348.855L239.942,355.138L242.56,358.28L247.273,362.469C249.716,363.865 251.636,365.262 253.033,366.658C255.476,368.404 257.745,369.451 259.84,369.8L261.935,368.753C264.029,367.705 265.775,366.658 267.171,365.611L276.073,361.422L279.215,359.851L286.022,357.233C288.116,356.535 289.862,355.662 291.258,354.615L295.447,347.284L295.447,345.713L297.542,336.287L297.542,332.098C298.589,323.72 298.764,316.913 298.065,311.676C288.989,302.6 277.469,298.236 263.505,298.585L254.604,304.345ZM261.935,314.818C267.869,316.564 272.407,319.705 275.549,324.244C276.596,334.716 275.724,344.142 272.931,352.52L270.836,351.473C267.345,349.029 264.553,346.585 262.458,344.142L260.887,340.476L260.364,334.716L260.364,331.051L259.84,329.48L259.84,326.338L260.364,325.291C260.015,321.451 260.015,318.309 260.364,315.865L261.935,314.818Z" style="fill:rgb(26,26,26);fill-rule:nonzero;"/>
            </g>
            <g transform="matrix(2.67753,0,0,4.20371,-173.586,-911.076)">
                <path d="M349.905,301.204L333.673,313.247C329.484,309.756 326.516,306.091 324.771,302.251L323.2,302.251C321.105,302.949 319.185,303.822 317.44,304.869L313.251,308.011C310.807,309.058 308.8,310.193 307.229,311.415C305.658,312.636 304.175,313.596 302.778,314.295L302.778,315.865C306.269,319.007 308.887,322.324 310.633,325.815C310.633,327.211 310.982,328.782 311.68,330.527L311.68,335.764L312.204,336.811C312.553,343.095 312.204,348.505 311.156,353.044L311.156,354.615C311.505,359.851 311.156,364.215 310.109,367.705L311.68,369.8C314.473,369.8 316.916,369.625 319.011,369.276C325.295,369.625 330.531,369.276 334.72,368.229C334.371,365.785 333.847,363.691 333.149,361.945L333.149,347.807C333.149,346.76 333.324,346.062 333.673,345.713L333.673,338.905L333.149,337.335L333.673,335.764C333.324,332.273 333.324,329.305 333.673,326.862L333.673,319.007L334.72,317.96L335.767,319.007L338.385,323.196C339.433,325.989 340.48,328.258 341.527,330.004L344.145,329.48L356.189,321.625C362.473,314.993 360.902,308.011 351.476,300.68L349.905,301.204Z" style="fill:rgb(26,26,26);fill-rule:nonzero;"/>
            </g>
            <g transform="matrix(2.67753,0,0,4.20371,-173.586,-911.076)">
                <path d="M381.455,303.822C380.058,304.52 379.011,305.393 378.313,306.44C373.076,309.582 369.062,312.549 366.269,315.342L366.269,333.145L365.745,335.24L365.745,343.095C364.698,346.585 364.175,349.553 364.175,351.996L364.698,353.567C366.095,355.313 367.142,356.884 367.84,358.28C368.887,360.724 369.935,362.644 370.982,364.04C373.076,366.484 374.473,368.753 375.171,370.847L373.6,372.418C371.156,375.211 368.887,377.305 366.793,378.702L363.651,382.367L363.651,383.938L365.222,384.985C369.411,385.684 372.902,386.556 375.695,387.604L387.738,391.793C393.324,393.189 397.687,395.109 400.829,397.553L410.255,391.793L413.396,388.651C415.84,385.509 418.284,383.065 420.727,381.32L422.298,380.273L425.964,376.607L427.011,375.036C430.851,371.545 433.469,368.753 434.865,366.658C434.516,364.215 433.644,362.12 432.247,360.375C431.2,358.629 430.153,357.233 429.105,356.185L428.582,354.615C424.742,350.775 421.775,346.585 419.68,342.047C419.68,339.604 419.855,337.509 420.204,335.764L420.727,332.098C421.076,328.956 421.6,326.164 422.298,323.72C422.647,318.484 424.044,313.771 426.487,309.582C424.393,308.884 422.473,308.535 420.727,308.535C417.236,306.789 414.095,305.742 411.302,305.393L407.113,303.822L406.065,303.298L399.258,301.204C395.418,299.458 391.753,298.585 388.262,298.585L381.455,303.822ZM394.545,321.625L396.116,322.673C398.909,323.371 401.353,324.244 403.447,325.291L402.924,331.051L402.4,332.622L401.876,336.811C401.178,342.047 400.305,346.411 399.258,349.902L395.593,353.567C385.818,344.142 383.2,332.971 387.738,320.055L394.545,321.625ZM400.305,358.28C403.098,362.818 405.716,366.309 408.16,368.753L408.684,369.8L412.873,376.084C412.175,376.433 411.476,376.433 410.778,376.084L405.018,375.036L401.353,372.942L397.164,371.895L393.498,370.847L392.451,370.324L384.073,367.705C385.818,365.611 387.389,364.215 388.785,363.516L391.927,362.469C394.371,359.676 396.815,357.756 399.258,356.709L400.305,358.28Z" style="fill:rgb(26,26,26);fill-rule:nonzero;"/>
            </g>
            <g transform="matrix(1.521e-16,-3.89984,3.26395,3.13778e-16,-1190.77,1087.17)">
                <path d="M100.495,510.927L98.924,511.975L96.305,513.022L95.258,514.069L85.309,519.305L84.785,520.876L85.309,536.062L84.785,538.68L84.785,556.484C84.785,559.625 84.611,562.418 84.262,564.862L84.262,570.622L84.785,572.193L84.262,574.287C84.262,574.287 83.305,609.545 84.353,610.942C87.145,609.895 89.764,608.324 92.207,606.229L93.255,605.182C99.189,602.04 103.902,598.898 107.393,595.756L106.255,578.476L106.255,562.767C105.905,557.88 106.08,553.865 106.778,550.724L106.778,539.727L106.255,538.156C106.604,536.062 106.953,533.444 107.302,530.302L107.825,521.4C107.476,518.607 107.476,515.989 107.825,513.545L111.491,509.88C111.142,507.785 110.095,506.913 108.349,507.262L100.495,510.927Z" style="fill:rgb(239,48,84);fill-rule:nonzero;"/>
            </g>
        </g>
    </g>
</svg>
